<svg width="25" height="24" viewBox="0 0 25 24" fill="none" xmlns="http://www.w3.org/2000/svg">
<path fill-rule="evenodd" clip-rule="evenodd" d="M12.3334 3C9.88897 3 9.58297 3.0102 8.62297 3.054C7.66477 3.0978 7.01017 3.2502 6.43777 3.4728C5.83777 3.6984 5.29357 4.0524 4.84357 4.5108C4.38591 4.96028 4.03169 5.5041 3.80557 6.1044C3.58417 6.6768 3.43117 7.332 3.38737 8.2902C3.34417 9.2496 3.33337 9.555 3.33337 12C3.33337 14.445 3.34357 14.7504 3.38737 15.7104C3.43117 16.6686 3.58357 17.3232 3.80617 17.8956C4.03177 18.4956 4.38577 19.0398 4.84417 19.4898C5.29367 19.9475 5.83748 20.3017 6.43777 20.5278C7.01017 20.7498 7.66477 20.9022 8.62297 20.946C9.58297 20.9898 9.88897 21 12.3334 21C14.7778 21 15.0838 20.9898 16.0438 20.946C17.002 20.9022 17.6566 20.7498 18.229 20.5272C18.829 20.3016 19.3732 19.9476 19.8232 19.4892C20.2808 19.0397 20.6351 18.4959 20.8612 17.8956C21.0832 17.3232 21.2356 16.6686 21.2794 15.7104C21.3232 14.7504 21.3334 14.4444 21.3334 12C21.3334 9.5556 21.3232 9.2496 21.2794 8.2896C21.2356 7.3314 21.0832 6.6768 20.8606 6.1044C20.6346 5.50384 20.2804 4.95979 19.8226 4.5102C19.3731 4.05253 18.8293 3.69831 18.229 3.4722C17.6566 3.2508 17.0014 3.0978 16.0432 3.054C15.0838 3.0108 14.7784 3 12.3334 3ZM12.3334 4.6218C14.7364 4.6218 15.0214 4.6308 15.9706 4.674C16.8478 4.7142 17.3242 4.86 17.6416 4.9842C18.0616 5.1468 18.3616 5.3424 18.6766 5.6568C18.9916 5.9718 19.1866 6.2718 19.3492 6.6918C19.4728 7.0092 19.6192 7.4856 19.6594 8.3628C19.7026 9.312 19.7116 9.597 19.7116 12C19.7116 14.403 19.7026 14.688 19.6594 15.6372C19.6192 16.5144 19.4734 16.9908 19.3492 17.3082C19.2051 17.6991 18.9753 18.0528 18.6766 18.3432C18.3862 18.642 18.0325 18.8718 17.6416 19.0158C17.3242 19.1394 16.8478 19.2858 15.9706 19.326C15.0214 19.3692 14.737 19.3782 12.3334 19.3782C9.92977 19.3782 9.64537 19.3692 8.69617 19.326C7.81897 19.2858 7.34257 19.14 7.02517 19.0158C6.63425 18.8718 6.28058 18.6419 5.99017 18.3432C5.69148 18.0528 5.46165 17.6991 5.31757 17.3082C5.19397 16.9908 5.04757 16.5144 5.00737 15.6372C4.96417 14.688 4.95517 14.403 4.95517 12C4.95517 9.597 4.96417 9.312 5.00737 8.3628C5.04757 7.4856 5.19337 7.0092 5.31757 6.6918C5.48017 6.2718 5.67577 5.9718 5.99017 5.6568C6.28054 5.35803 6.63422 5.12819 7.02517 4.9842C7.34257 4.8606 7.81897 4.7142 8.69617 4.674C9.64537 4.6308 9.93037 4.6218 12.3334 4.6218Z" fill="white"/>
<path fill-rule="evenodd" clip-rule="evenodd" d="M12.3334 15.003C11.939 15.003 11.5485 14.9253 11.1842 14.7744C10.8199 14.6235 10.4888 14.4023 10.21 14.1234C9.9311 13.8446 9.7099 13.5135 9.55899 13.1492C9.40807 12.7849 9.3304 12.3944 9.3304 12C9.3304 11.6056 9.40807 11.2151 9.55899 10.8508C9.7099 10.4865 9.9311 10.1554 10.21 9.87656C10.4888 9.59771 10.8199 9.37651 11.1842 9.22559C11.5485 9.07468 11.939 8.997 12.3334 8.997C13.1298 8.997 13.8937 9.31339 14.4568 9.87656C15.02 10.4397 15.3364 11.2036 15.3364 12C15.3364 12.7964 15.02 13.5603 14.4568 14.1234C13.8937 14.6866 13.1298 15.003 12.3334 15.003ZM12.3334 7.374C11.1065 7.374 9.92986 7.86138 9.06232 8.72893C8.19478 9.59647 7.7074 10.7731 7.7074 12C7.7074 13.2269 8.19478 14.4035 9.06232 15.2711C9.92986 16.1386 11.1065 16.626 12.3334 16.626C13.5603 16.626 14.7369 16.1386 15.6045 15.2711C16.472 14.4035 16.9594 13.2269 16.9594 12C16.9594 10.7731 16.472 9.59647 15.6045 8.72893C14.7369 7.86138 13.5603 7.374 12.3334 7.374ZM18.3052 7.29C18.3052 7.58002 18.19 7.85815 17.9849 8.06322C17.7798 8.2683 17.5017 8.3835 17.2117 8.3835C16.9217 8.3835 16.6435 8.2683 16.4385 8.06322C16.2334 7.85815 16.1182 7.58002 16.1182 7.29C16.1182 6.99999 16.2334 6.72185 16.4385 6.51678C16.6435 6.31171 16.9217 6.1965 17.2117 6.1965C17.5017 6.1965 17.7798 6.31171 17.9849 6.51678C18.19 6.72185 18.3052 6.99999 18.3052 7.29Z" fill="white"/>
</svg>
