<svg width="25" height="24" viewBox="0 0 25 24" fill="none" xmlns="http://www.w3.org/2000/svg">
<path d="M20.6191 7.92007C20.6313 8.09639 20.6313 8.2727 20.6313 8.45064C20.6313 13.8725 16.5037 20.1256 8.95629 20.1256V20.1224C6.72675 20.1256 4.54353 19.487 2.66663 18.2829C2.99082 18.3219 3.31664 18.3414 3.64327 18.3422C5.49092 18.3438 7.28576 17.7239 8.73935 16.5823C6.98351 16.549 5.44379 15.4041 4.90591 13.7328C5.52098 13.8514 6.15474 13.827 6.75844 13.6621C4.84416 13.2753 3.46695 11.5934 3.46695 9.64016C3.46695 9.62229 3.46695 9.60522 3.46695 9.58816C4.03733 9.90585 4.67597 10.0822 5.32923 10.1017C3.52626 8.89671 2.97051 6.49818 4.05927 4.6229C6.14256 7.18637 9.21629 8.74477 12.5159 8.90971C12.1852 7.48457 12.637 5.99117 13.703 4.98934C15.3556 3.43582 17.9549 3.51544 19.5084 5.16728C20.4273 4.98609 21.3081 4.6489 22.1141 4.17114C21.8078 5.12097 21.1667 5.92779 20.3103 6.44049C21.1237 6.34461 21.9183 6.12686 22.6666 5.79454C22.1157 6.62005 21.4219 7.33913 20.6191 7.92007Z" fill="white"/>
</svg>
